<svg xmlns="http://www.w3.org/2000/svg" width="200" height="160" viewBox="0 0 140 108.75">
  <g stroke="#fff" stroke-linecap="round" stroke-linejoin="round" stroke-width="6" fill="none">
    <polygon points="109.697 106.75 30.303 106.75 47.018 56.828 92.982 56.828 109.697 106.75"/>
    <path d="M69.059,48.663H50.177V38.43c0-4.564,3.574-10.053,10.314-11.367C63.724,32.671,69.059,48.663,69.059,48.663Z"/>
    <ellipse cx="70" cy="12.709" rx="9.509" ry="10.709"/>
    <path d="M61.089,28.179a9.7,9.7,0,0,0,4.464-5.839"/>
    <path d="M70.941,48.663H89.823V38.43c0-4.564-3.574-10.053-10.314-11.367C76.276,32.671,70.941,48.663,70.941,48.663Z"/>
    <path d="M78.911,28.179a9.7,9.7,0,0,1-4.464-5.839"/>
    <path d="M20.882,84.526H2V74.293C2,69.729,5.573,64.24,12.314,62.927"/>
    <ellipse cx="21.823" cy="48.572" rx="9.509" ry="10.709"/>
    <path d="M12.911,64.042A9.7,9.7,0,0,0,17.376,58.2"/>
    <line x1="22.764" y1="84.526" x2="29.309" y2="84.526"/>
    <path d="M37.255,65.644a13.359,13.359,0,0,0-5.924-2.717"/>
    <path d="M30.734,64.042A9.7,9.7,0,0,1,26.27,58.2"/>
    <path d="M119.118,84.526H138V74.293c0-4.564-3.573-10.053-10.314-11.366"/>
    <ellipse cx="118.177" cy="48.572" rx="9.509" ry="10.709"/>
    <path d="M127.089,64.042a9.7,9.7,0,0,1-4.465-5.839"/>
    <line x1="117.236" y1="84.526" x2="110.691" y2="84.526"/>
    <path d="M102.745,65.644a13.359,13.359,0,0,1,5.924-2.717"/>
    <path d="M109.266,64.042A9.7,9.7,0,0,0,113.73,58.2"/>
  </g>
</svg>
